# xmcd CD database file
#
# Track frame offsets:
#	150
#	30055
#	60450
#	93618
#
# Disc length: 2367 seconds
#
# Revision: 0
# Processed by: cddbd v1.5.2PL0 Copyright (c) Steve Scherf et al.
# Submitted via: CDex 1.51
#
DISCID=23093d04
DTITLE=Charles Mingus - Black Saint and the Sinner Lady
DYEAR=1963
DGENRE=Jazz
TTITLE0=Solo Dancer
TTITLE1=Duet Solo Dancers
TTITLE2=Group Dancers
TTITLE3=Trio and Group Dancers
EXTD=YEAR: 1963
EXTT0=
EXTT1=
EXTT2=
EXTT3=
PLAYORDER=
